<svg width="20" height="20" viewBox="0 0 20 20" fill="none" xmlns="http://www.w3.org/2000/svg">
<g id="Frame">
<g id="SVGRepo_iconCarrier">
<path id="Vector" d="M6.61607 2.04494C6.38173 2.27935 6.25008 2.59723 6.25008 2.92869C6.25008 3.26014 6.38173 3.57803 6.61607 3.81244L12.8036 9.99994L6.61607 16.1874C6.38837 16.4232 6.26238 16.7389 6.26523 17.0667C6.26807 17.3944 6.39953 17.708 6.63129 17.9397C6.86305 18.1715 7.17657 18.3029 7.50432 18.3058C7.83206 18.3086 8.14781 18.1826 8.38357 17.9549L15.4548 10.8837C15.6892 10.6493 15.8208 10.3314 15.8208 9.99994C15.8208 9.66848 15.6892 9.3506 15.4548 9.11619L8.38357 2.04494C8.14916 1.8106 7.83127 1.67896 7.49982 1.67896C7.16836 1.67896 6.85048 1.8106 6.61607 2.04494Z" fill="white"/>
</g>
</g>
</svg>
