<svg width="73" height="73" viewBox="0 0 73 73" fill="none" xmlns="http://www.w3.org/2000/svg">
<rect x="0.5" y="0.5" width="72" height="72" rx="16" fill="#635BFF"/>
<path d="M57.6634 47.1464L57.6727 47.1413H57.6546L47.0283 41.3833L36.3844 35.6152L25.74 41.3833L15.1138 47.1413H15.0957L15.105 47.1464L15.0957 47.1515H15.1138L25.74 52.9094L36.3844 58.6775L47.0283 52.9094L57.6546 47.1515H57.6727L57.6634 47.1464Z" fill="#DCD8FF"/>
<path d="M57.6634 25.0312L57.6727 25.0265H57.6546L47.0283 19.2681L36.3844 13.5L25.74 19.2681L15.1138 25.0265H15.0957L15.105 25.0312L15.0957 25.0362H15.1138L25.74 30.7946L36.3844 36.5627L47.0283 30.7946L57.6546 25.0362H57.6727L57.6634 25.0312Z" fill="#3725AE"/>
<path d="M15.1133 24.5625V47.6151L36.3839 36.089L15.1133 24.5625Z" fill="#B8B1FF"/>
<path d="M57.655 24.5625V47.6151L36.3848 36.089L57.655 24.5625Z" fill="#B8B1FF"/>
</svg>
