<svg width="22" height="20" viewBox="0 0 22 20" fill="none" xmlns="http://www.w3.org/2000/svg">
<g id="Frame" clip-path="url(#clip0_536_643)">
<g id="SVGRepo_iconCarrier">
<g id="Page-1">
<g id="Dribbble-Light-Preview">
<g id="icons">
<path id="github-[#142]" fill-rule="evenodd" clip-rule="evenodd" d="M10.7201 0C16.5745 0 21.3201 4.58993 21.3201 10.2529C21.3201 14.7819 18.2864 18.624 14.0771 19.981C13.5397 20.082 13.3489 19.7618 13.3489 19.4888C13.3489 19.1508 13.3616 18.0468 13.3616 16.6748C13.3616 15.7188 13.0224 15.0949 12.6419 14.7769C15.0025 14.5229 17.4829 13.6558 17.4829 9.71777C17.4829 8.59777 17.0716 7.68382 16.3911 6.96582C16.5014 6.70682 16.8649 5.66395 16.2872 4.25195C16.2872 4.25195 15.399 3.97722 13.3754 5.30322C12.5285 5.07622 11.6211 4.96201 10.7201 4.95801C9.81912 4.96201 8.91282 5.07622 8.06694 5.30322C6.04128 3.97722 5.15088 4.25195 5.15088 4.25195C4.5753 5.66395 4.93888 6.70682 5.04806 6.96582C4.37072 7.68382 3.95626 8.59777 3.95626 9.71777C3.95626 13.6458 6.43136 14.5262 8.78562 14.7852C8.48246 15.0412 8.20792 15.4928 8.11252 16.1558C7.50832 16.4178 5.97343 16.8712 5.02791 15.3042C5.02791 15.3042 4.46718 14.3191 3.40294 14.2471C3.40294 14.2471 2.36944 14.2341 3.33086 14.8701C3.33086 14.8701 4.02516 15.1851 4.50746 16.3701C4.50746 16.3701 5.12968 18.2001 8.0786 17.5801C8.0839 18.4371 8.09344 19.2448 8.09344 19.4888C8.09344 19.7598 7.89839 20.0769 7.36945 19.9819C3.15701 18.6269 0.120117 14.7829 0.120117 10.2529C0.120117 4.58993 4.8668 0 10.7201 0Z" fill="#ECF0FF"/>
</g>
</g>
</g>
</g>
</g>
<defs>
<clipPath id="clip0_536_643">
<rect width="21.2" height="20" fill="white" transform="translate(0.120117)"/>
</clipPath>
</defs>
</svg>
