<svg width="27" height="24" viewBox="0 0 27 24" fill="none" xmlns="http://www.w3.org/2000/svg">
<path fill-rule="evenodd" clip-rule="evenodd" d="M15.5204 7C14.935 7 14.4604 7.44772 14.4604 8V16C14.4604 16.5523 14.935 17 15.5204 17H19.7604C20.3459 17 20.8204 16.5523 20.8204 16V8C20.8204 7.44772 20.3459 7 19.7604 7H15.5204ZM18.7004 9H16.5804V15H18.7004V9Z" fill="#ECF0FF"/>
<path d="M7.04047 7C6.45505 7 5.98047 7.44772 5.98047 8C5.98047 8.55228 6.45505 9 7.04047 9H11.2805C11.8659 9 12.3405 8.55228 12.3405 8C12.3405 7.44772 11.8659 7 11.2805 7H7.04047Z" fill="#ECF0FF"/>
<path d="M7.04047 11C6.45505 11 5.98047 11.4477 5.98047 12C5.98047 12.5523 6.45505 13 7.04047 13H11.2805C11.8659 13 12.3405 12.5523 12.3405 12C12.3405 11.4477 11.8659 11 11.2805 11H7.04047Z" fill="#ECF0FF"/>
<path d="M5.98047 16C5.98047 15.4477 6.45505 15 7.04047 15H11.2805C11.8659 15 12.3405 15.4477 12.3405 16C12.3405 16.5523 11.8659 17 11.2805 17H7.04047C6.45505 17 5.98047 16.5523 5.98047 16Z" fill="#ECF0FF"/>
<path fill-rule="evenodd" clip-rule="evenodd" d="M4.92023 3C3.16397 3 1.74023 4.34315 1.74023 6V18C1.74023 19.6569 3.16397 21 4.92023 21H21.8802C23.6365 21 25.0602 19.6569 25.0602 18V6C25.0602 4.34315 23.6365 3 21.8802 3H4.92023ZM21.8802 5H4.92023C4.33482 5 3.86023 5.44772 3.86023 6V18C3.86023 18.5523 4.33482 19 4.92023 19H21.8802C22.4657 19 22.9402 18.5523 22.9402 18V6C22.9402 5.44772 22.4657 5 21.8802 5Z" fill="#ECF0FF"/>
</svg>
