<svg width="22" height="23" viewBox="0 0 22 23" fill="none" xmlns="http://www.w3.org/2000/svg">
<rect y="0.5" width="22" height="22" rx="4" fill="#635BFF"/>
<path d="M17.4989 13.7376V17.8076C17.4987 18.3834 17.2698 18.9357 16.8626 19.3429C16.4554 19.7501 15.9032 19.9789 15.3274 19.9792H4.69311C4.40688 19.979 4.1235 19.9224 3.85925 19.8124C3.59499 19.7024 3.35508 19.5413 3.15328 19.3383C2.95149 19.1353 2.79179 18.8945 2.68337 18.6296C2.57496 18.3647 2.51995 18.081 2.52152 17.7948V7.17242C2.51982 6.88664 2.57485 6.60337 2.68343 6.33903C2.792 6.07468 2.95196 5.83451 3.15404 5.63243C3.35611 5.43035 3.59628 5.27039 3.86063 5.16182C4.12498 5.05324 4.40825 4.99821 4.69402 4.99992H8.76311" stroke="#ECF0FF" stroke-width="1.5" stroke-linecap="round" stroke-linejoin="round"/>
<path d="M17.4994 8.74542L13.7548 4.99992M6.26562 14.9861V13.0015C6.26746 12.6743 6.39762 12.3598 6.62771 12.1279L15.3654 3.39025C15.4814 3.27324 15.6195 3.18036 15.7717 3.11698C15.9238 3.0536 16.087 3.02097 16.2518 3.02097C16.4166 3.02097 16.5798 3.0536 16.7319 3.11698C16.8841 3.18036 17.0221 3.27324 17.1382 3.39025L19.11 5.362C19.2272 5.47794 19.3203 5.61598 19.3838 5.76814C19.4473 5.92029 19.48 6.08354 19.48 6.24842C19.48 6.4133 19.4473 6.57654 19.3838 6.7287C19.3203 6.88085 19.2272 7.0189 19.11 7.13483L10.3723 15.8725C10.1399 16.1032 9.82614 16.2332 9.49871 16.2346H7.51412C7.183 16.2346 6.86544 16.103 6.6313 15.8689C6.39716 15.6348 6.26562 15.3172 6.26562 14.9861Z" stroke="#ECF0FF" stroke-width="1.5" stroke-linecap="round" stroke-linejoin="round"/>
</svg>
